<svg width="15" height="15" viewBox="0 0 15 15" fill="none" xmlns="http://www.w3.org/2000/svg">
<path d="M6.06445 10.793C8.65234 10.793 10.748 8.69531 10.748 6.10938C10.748 3.52344 8.65039 1.42383 6.06445 1.42383C3.47852 1.42383 1.37891 3.52148 1.37891 6.10742C1.37891 8.69336 3.47656 10.793 6.06445 10.793ZM10.5977 9.81445L12.0195 11.2363L12.8477 10.4082C13.0762 10.1797 13.4473 10.1797 13.6758 10.4082C13.9043 10.6367 13.9043 11.0078 13.6758 11.2363L12.8477 12.0625L14.0898 13.3047C14.3184 13.5332 14.3184 13.9043 14.0898 14.1328C13.8613 14.3613 13.4902 14.3613 13.2617 14.1328L12.0195 12.8906L11.1914 13.7188C10.9629 13.9473 10.5918 13.9473 10.3633 13.7188C10.1348 13.4902 10.1348 13.1191 10.3633 12.8906L11.1914 12.0625L9.76953 10.6406C8.75976 11.4668 7.46875 11.9629 6.06445 11.9629C2.83008 11.9629 0.208984 9.3418 0.208984 6.10742C0.208984 2.87305 2.83008 0.251953 6.06445 0.251953C9.29883 0.251953 11.9199 2.87305 11.9199 6.10742C11.918 7.51367 11.4238 8.80469 10.5977 9.81445Z" fill="#F52222"/>
</svg>
