<svg width="15" height="15" viewBox="0 0 15 15" fill="none" xmlns="http://www.w3.org/2000/svg">
<path d="M6.05273 13.7363C8.66211 13.7363 10.7773 11.6211 10.7773 9.01172C10.7773 6.40234 8.66211 4.28711 6.05273 4.28711C3.44336 4.28711 1.32812 6.40234 1.32812 9.01172C1.32812 11.6211 3.44336 13.7363 6.05273 13.7363ZM10.5957 5.23633C11.4473 6.25977 11.959 7.57617 11.959 9.00977C11.959 12.2715 9.31445 14.916 6.05273 14.916C2.79102 14.916 0.148438 12.2734 0.148438 9.01172C0.148438 5.75 2.79297 3.10547 6.05469 3.10547C7.45508 3.10547 8.74219 3.59375 9.75586 4.4082L12.2383 1.92383H9.00586C8.67969 1.92383 8.41602 1.66016 8.41602 1.33398C8.41602 1.00781 8.67969 0.744141 9.00586 0.744141H13.7305C14.0566 0.744141 14.3203 1.00781 14.3203 1.33398V6.05859C14.3203 6.38477 14.0566 6.64844 13.7305 6.64844C13.4043 6.64844 13.1406 6.38477 13.1406 6.05859V2.69336L10.5957 5.23633Z" fill="#369AFE"/>
</svg>
