<svg width="65" height="60" viewBox="0 0 65 60" fill="none" xmlns="http://www.w3.org/2000/svg">
<path d="M19.8482 43.2258L20.1743 44.4429L25.993 42.8838L25.6669 41.6667L19.8482 43.2258ZM21.1843 48.7689L21.5104 49.986L27.4915 48.3834L27.1653 47.1663L21.1843 48.7689ZM19.7314 45.8039L21.0141 50.591L22.3819 50.2245L21.4284 46.6661L26.0185 45.4362L26.972 48.9946L28.3977 48.6126L27.115 43.8255L19.7314 45.8039ZM22.066 40.0972C23.444 41.2064 25.8137 42.261 27.8503 42.7216C27.9788 42.2275 28.176 41.6653 28.4306 41.2244C26.3625 40.971 24.1019 39.9989 22.3602 38.5524L20.9113 38.9407C20.4356 40.5962 19.0384 42.8465 17.294 44.3575C17.673 44.5665 18.1922 44.974 18.4646 45.2489C20.1038 43.7164 21.4789 41.7081 22.066 40.0972ZM33.7474 37.5138L33.4523 39.0091L39.6652 37.3444L39.3111 36.023L33.7474 37.5138ZM35.9607 39.6539L36.2992 40.9173L40.0316 39.9173L39.693 38.6538L35.9607 39.6539ZM36.6355 42.2186L36.9833 43.5169L40.8779 42.4733L40.5301 41.1751L36.6355 42.2186ZM34.6884 37.7338L36.9805 46.288L38.4062 45.906L36.1141 37.3518L34.6884 37.7338ZM33.5357 35.6574C33.4528 37.4809 32.9844 39.3954 32.2439 40.7119C32.6043 40.8514 33.271 41.207 33.5596 41.403C34.3029 39.9117 34.8306 37.7081 34.9765 35.6564L33.5357 35.6574ZM30.4601 36.4193C30.3131 38.2353 29.7457 40.1514 28.9619 41.4919C29.2985 41.7745 29.9038 42.4571 30.1245 42.7706C31.0454 41.1076 31.6941 38.6603 31.9196 36.4879L30.4601 36.4193ZM30.1466 39.9322L32.1902 47.5591L33.5928 47.1833L31.1764 38.1654L31.1617 38.157L30.1466 39.9322ZM41.9948 41.7268C41.9296 41.4834 42.6438 40.8572 42.6438 40.8572L42.6376 40.834C43.4731 39.4548 44.2285 37.6373 44.6887 35.9238L43.3718 35.5065C43.0283 37.2384 42.2568 39.1346 41.9799 39.6312C41.7208 40.1479 41.5194 40.4628 41.2367 40.6131C41.4775 40.9088 41.8569 41.4904 41.9948 41.7268ZM41.9948 41.7268C42.2612 41.4691 42.7053 41.2258 45.4472 40.0066C45.3348 39.7262 45.1719 39.2108 45.0872 38.8483L42.1273 40.0887L41.6333 40.6559L41.9948 41.7268ZM41.1442 38.9234C41.0759 38.6684 41.7809 38.0074 41.7809 38.0074L41.7747 37.9842C42.3042 36.7615 42.7706 35.0712 42.9806 33.5366L41.4901 33.3521C41.4215 34.8116 41.0269 36.4453 40.8566 36.8761C40.7156 37.3238 40.5722 37.6232 40.3474 37.7579C40.5913 38.0653 41.0002 38.6639 41.1442 38.9234ZM41.1442 38.9234C41.3682 38.7392 41.749 38.5377 43.8954 37.739C43.8387 37.4809 43.7662 36.9785 43.7457 36.6237L41.3265 37.4707L40.8579 37.9938L41.1442 38.9234ZM41.8293 42.9638L42.4067 44.2377C43.5323 43.6628 45.0163 42.9422 46.4014 42.2232L45.9594 41.0372C44.4722 41.7462 42.887 42.5064 41.8293 42.9638ZM47.4686 39.3905C48.4218 39.4705 49.6458 39.7264 50.3433 40.0116L50.8528 38.8067C50.1414 38.5625 48.9384 38.3382 47.9798 38.2845L47.4686 39.3905ZM46.6953 41.6972C48.3603 41.6983 50.4431 41.9602 51.6687 42.3151L52.1734 40.9996C50.917 40.7151 48.8636 40.4702 47.2311 40.4977L46.6953 41.6972ZM45.7016 32.2857C45.5553 33.4554 45.0932 34.8837 44.1215 36.1255C44.4842 36.2271 45.0752 36.5781 45.3793 36.832C46.4426 35.3296 46.9571 33.7258 47.2041 32.144L45.7016 32.2857ZM46.3096 33.303L46.0383 34.6553L49.5041 33.7266L49.1842 32.5328L46.3096 33.303ZM48.8133 32.6322L48.8785 32.8756C48.6168 35.1446 46.9845 37.2591 44.923 38.6066C45.2664 38.7755 45.8475 39.2285 46.0851 39.5127C48.1727 37.9843 49.9253 35.5767 50.3137 32.7146L49.2993 32.4522L49.0914 32.5576L48.8133 32.6322ZM46.4159 34.256L45.3886 34.966C46.9861 36.6624 49.1766 37.7899 51.492 38.0391C51.6043 37.6239 51.8524 36.9735 52.094 36.623C49.8947 36.529 47.7339 35.6048 46.4159 34.256ZM57.897 32.9189L58.2697 34.3098L62.5468 33.1638L62.1741 31.7728L57.897 32.9189ZM53.5725 39.7302L53.9421 41.1096L64.5828 38.2584L64.2132 36.8791L53.5725 39.7302ZM56.2379 29.4625L58.8219 39.1063L60.3056 38.7088L57.7216 29.065L56.2379 29.4625ZM53.3107 32.8185L55.2363 40.005L56.6852 39.6167L54.7596 32.4302L53.3107 32.8185Z" fill="#FF4D4A"/>
<circle cx="40.9898" cy="40.9898" r="39" transform="rotate(-15 40.9898 40.9898)" stroke="#FF4D4A" stroke-width="2"/>
<circle cx="40.9898" cy="40.9898" r="31.5" transform="rotate(-15 40.9898 40.9898)" stroke="#FF4D4A"/>
</svg>
